<svg width="21" height="20" viewBox="0 0 21 20" fill="none" xmlns="http://www.w3.org/2000/svg">
    <path d="M20.1484 17.8736C18.7206 15.4052 16.5203 13.6352 13.9525 12.7961C15.2226 12.04 16.2094 10.8878 16.7614 9.51658C17.3134 8.14531 17.3999 6.63077 17.0078 5.20554C16.6157 3.78031 15.7666 2.5232 14.5909 1.62726C13.4151 0.731322 11.9778 0.246094 10.4996 0.246094C9.02146 0.246094 7.58414 0.731322 6.40842 1.62726C5.23269 2.5232 4.38358 3.78031 3.99146 5.20554C3.59935 6.63077 3.68592 8.14531 4.23788 9.51658C4.78984 10.8878 5.77668 12.04 7.04683 12.7961C4.47902 13.6343 2.27871 15.4043 0.850893 17.8736C0.798533 17.959 0.763803 18.054 0.748752 18.153C0.733701 18.2521 0.738634 18.3531 0.76326 18.4502C0.787886 18.5472 0.831707 18.6384 0.892136 18.7183C0.952565 18.7981 1.02838 18.8651 1.1151 18.9152C1.20183 18.9653 1.29771 18.9975 1.39709 19.0099C1.49647 19.0224 1.59733 19.0148 1.69373 18.9876C1.79012 18.9604 1.8801 18.9142 1.95835 18.8517C2.0366 18.7892 2.10154 18.7117 2.14933 18.6236C3.91558 15.5711 7.03746 13.7486 10.4996 13.7486C13.9618 13.7486 17.0837 15.5711 18.85 18.6236C18.8977 18.7117 18.9627 18.7892 19.0409 18.8517C19.1192 18.9142 19.2092 18.9604 19.3056 18.9876C19.402 19.0148 19.5028 19.0224 19.6022 19.0099C19.7016 18.9975 19.7975 18.9653 19.8842 18.9152C19.9709 18.8651 20.0467 18.7981 20.1072 18.7183C20.1676 18.6384 20.2114 18.5472 20.236 18.4502C20.2607 18.3531 20.2656 18.2521 20.2505 18.153C20.2355 18.054 20.2008 17.959 20.1484 17.8736ZM5.24964 6.99864C5.24964 5.96029 5.55755 4.94526 6.13443 4.0819C6.71131 3.21854 7.53124 2.54564 8.49056 2.14828C9.44987 1.75092 10.5055 1.64695 11.5239 1.84952C12.5423 2.05209 13.4777 2.55211 14.212 3.28633C14.9462 4.02056 15.4462 4.95602 15.6488 5.97442C15.8513 6.99282 15.7474 8.04842 15.35 9.00773C14.9527 9.96704 14.2797 10.787 13.4164 11.3639C12.553 11.9407 11.538 12.2486 10.4996 12.2486C9.10771 12.2472 7.77322 11.6936 6.78898 10.7093C5.80473 9.72507 5.25113 8.39057 5.24964 6.99864Z" fill="#848484"/>
</svg>
