<svg width="19" height="19" viewBox="0 0 19 19" fill="none" xmlns="http://www.w3.org/2000/svg">
    <path d="M18.0603 8.18899L10.5603 0.688992C10.279 0.4079 9.89766 0.25 9.50001 0.25C9.10236 0.25 8.72097 0.4079 8.4397 0.688992L0.939697 8.18899C0.799732 8.32792 0.688783 8.49328 0.6133 8.67547C0.537817 8.85766 0.499308 9.05304 0.500009 9.25024V18.2502C0.500009 18.4492 0.579027 18.6399 0.719679 18.7806C0.860332 18.9212 1.0511 19.0002 1.25001 19.0002H17.75C17.9489 19.0002 18.1397 18.9212 18.2803 18.7806C18.421 18.6399 18.5 18.4492 18.5 18.2502V9.25024C18.5007 9.05304 18.4622 8.85766 18.3867 8.67547C18.3112 8.49328 18.2003 8.32792 18.0603 8.18899ZM17 17.5002H2.00001V9.25024L9.50001 1.75024L17 9.25024V17.5002Z" fill="#FFFFFF"/>
</svg>
